<svg xmlns="http://www.w3.org/2000/svg" xmlns:xlink="http://www.w3.org/1999/xlink" width="29.409" height="28.926" viewBox="0 0 29.409 28.926">
  <defs>
    <linearGradient id="linear-gradient" x1="0.5" y1="0.166" x2="0.5" y2="0.826" gradientUnits="objectBoundingBox">
      <stop offset="0" stop-color="#e21343"/>
      <stop offset="1" stop-color="#f54898"/>
    </linearGradient>
  </defs>
  <g id="Group_158" data-name="Group 158" transform="translate(7399.213 -2346.437)">
    <path id="Union_1" data-name="Union 1" d="M11.219,28.558a14.56,14.56,0,0,1-3.1-1.1,14.392,14.392,0,0,1-2.813-1.8,14.6,14.6,0,0,1-2.389-2.492A14.43,14.43,0,0,1,.124,12.586L4.03,13.1a10.483,10.483,0,0,0,2.029,7.7A10.579,10.579,0,0,0,7.8,22.61,10.431,10.431,0,0,0,9.845,23.92a10.6,10.6,0,0,0,5.776,1.005l.513,3.905a14.4,14.4,0,0,1-1.659.1A14.611,14.611,0,0,1,11.219,28.558Zm7.455-.256-1.12-3.776.2-.062a10.578,10.578,0,0,0,3.045-1.6,10.528,10.528,0,0,0,3.529-12.083l3.486-1.9a14.476,14.476,0,0,1-8.83,19.322c-.1.032-.2.064-.307.1h0ZM.686,10.06A14.6,14.6,0,0,1,1.948,7.209,14.453,14.453,0,0,1,14.454,0a14.539,14.539,0,0,1,6.358,1.465A15.025,15.025,0,0,1,22.3,2.3L19.941,5.476c-.277-.169-.566-.327-.856-.468A10.627,10.627,0,0,0,14.458,3.94h0a10.54,10.54,0,0,0-9.1,5.244,10.689,10.689,0,0,0-.893,2Zm19.838.873h0L19.135,9.392l6.659-8.069L29.409,5.48Zm0,0h0Z" transform="translate(-7399.213 2346.437)" fill="url(#linear-gradient)"/>
  </g>
</svg>
